<svg height="89" viewBox="0 0 422 89" width="422" xmlns="http://www.w3.org/2000/svg"><g fill="none" fill-rule="evenodd" transform="translate(0 -1)"><g fill="#020202"><path d="m71.0501106 82.3973782v1.5807697h1.9832805v5.4131606h1.8356933v-5.4131606h1.9832805v-1.5807697z"/><path d="m87.0114938 82.3973782v3.2554587h-2.5846073v-3.2554587h-1.8234959v6.9939303h1.8234959v-2.1174508h2.5846073v2.1174508h1.8222762v-6.9939303z"/><path d="m94.8538681 82.3973782v6.9939303h5.1057886v-1.5673527h-3.2835124v-.85747h2.6272978v-1.4880703h-2.6272978v-1.5136846h3.1481224v-1.5673527z"/><path d="m115.533654 86.3089295c.951389 0 1.420985-.3220087 1.420985-1.1648419 0-.844053-.509847-1.1660616-1.420985-1.1660616h-.429345v2.3309035zm-2.251621-3.9116733h2.291872c1.969863 0 3.256678.9648063 3.256678 2.7468314 0 1.7686081-1.286815 2.7334143-3.256678 2.7334143h-.469596v1.5136846h-1.822276z"/><path d="m126.898973 86.1754911c.95139 0 1.379515-.3085917 1.379515-1.0977568 0-.7916046-.428125-1.1123935-1.379515-1.1123935h-.508627v2.2101503zm3.350598 3.2164273h-2.050366l-.978223-1.6893257c-.093919.0146367-.187838.0146367-.281757.0146367h-.548879v1.674689h-1.823496v-6.99515h2.372375c1.84911 0 3.20301.8306359 3.20301 2.6809659 0 1.0440886-.483013 1.7405543-1.233147 2.1296481z"/><path d="m136.040116 89.3911865h1.822276v-6.9939303h-1.822276z"/><path d="m143.733927 85.8944653c0-2.0771997 1.473434-3.6189381 3.631136-3.6189381 1.394151 0 2.358957.5500981 2.988337 1.5283214l-1.447819.9648062c-.307372-.49643-.750134-.8843041-1.540518-.8843041-1.098977 0-1.768609.844053-1.768609 2.0101146 0 1.1514249.669632 2.0088949 1.80886 2.0088949.870887 0 1.407568-.4147081 1.689325-.9904206l1.473434.844053c-.523264 1.0587254-1.622241 1.7551911-3.149342 1.7551911-2.278455 0-3.684804-1.5673527-3.684804-3.6177184"/><path d="m156.33154 89.3911865h1.822276v-6.9939303h-1.822276z"/><path d="m166.745592 86.6853381c-.523264-.4561789-1.005057-1.0453084-1.005057-1.0453084s.13417.8977211.13417 1.4746532v2.2772355h-1.674689v-7.0890692h.146368l3.229844 2.7870824c.563515.49643 1.005057 1.0599451 1.005057 1.0599451s-.107336-.9123578-.107336-1.4880702v-2.2650381h1.675909v7.1024862h-.147587z"/><path d="m175.993583 85.8944653c0-2.1589216 1.622241-3.6189381 3.684803-3.6189381 1.420986 0 2.157702.4952103 2.680966 1.0465281l-1.166061 1.205093c-.281758-.3220087-.697686-.6427976-1.514905-.6427976-1.151424 0-1.822276.8977211-1.822276 2.0101146 0 1.1258106.509847 2.0771998 1.996698 2.0771998.415928 0 .817219-.0805022 1.085559-.1878384v-.8038019h-1.419765v-1.4612362h3.082257v3.2969294c-.442762.3073719-1.461236.6964657-2.748051.6964657-2.397989 0-3.859225-1.5271016-3.859225-3.6177184"/><path d="m198.25548 86.3089295c.951389 0 1.420985-.3220087 1.420985-1.1648419 0-.844053-.509847-1.1660616-1.420985-1.1660616h-.429345v2.3309035zm-2.251621-3.9116733h2.291872c1.969864 0 3.256679.9648063 3.256679 2.7468314 0 1.7686081-1.286815 2.7334143-3.256679 2.7334143h-.469596v1.5136846h-1.822276z"/><path d="m210.197244 87.5953784-.295175-.6952459c-.307371-.7245195-.522044-1.4746533-.522044-1.4746533s-.187838.7501338-.509847 1.4746533l-.307372.6952459zm-.85747-5.2789902h.147587l3.29571 7.0756521h-1.889361l-.240287-.5622954h-2.587047l-.240287.5622954h-1.769827z"/><path d="m220.637643 86.1754911c.951389 0 1.380734-.3085917 1.380734-1.0977568 0-.7916046-.429345-1.1123935-1.380734-1.1123935h-.508628v2.2101503zm3.350597 3.2164273h-2.050365l-.978224-1.6893257c-.093919.0146367-.187838.0146367-.281757.0146367h-.548879v1.674689h-1.822276v-6.99515h2.371155c1.85033 0 3.20301.8306359 3.20301 2.6809659 0 1.0440886-.481793 1.7405543-1.233147 2.1296481z"/><path d="m231.334063 83.977904h-1.983281v-1.5807697h5.802254v1.5807697h-1.98328v5.4131605h-1.835693z"/><path d="m243.45037 86.6853381c-.523264-.4561789-1.005058-1.0453084-1.005058-1.0453084s.132951.8977211.132951 1.4746532v2.2772355h-1.674689v-7.0890692h.147587l3.229845 2.7870824c.563515.49643 1.005057 1.0599451 1.005057 1.0599451s-.107336-.9123578-.107336-1.4880702v-2.2650381h1.674689v7.1024862h-.147588z"/><path d="m252.872294 82.3972562h4.971618v1.5673527h-3.149342v1.5136846h2.626078v1.4880703h-2.626078v.85747h3.283513v1.5673527h-5.105789z"/><path d="m266.153565 86.1754911c.951389 0 1.380734-.3085917 1.380734-1.0977568 0-.7916046-.429345-1.1123935-1.380734-1.1123935h-.508627v2.2101503zm3.350598 3.2164273h-2.050366l-.978223-1.6893257c-.093919.0146367-.187839.0146367-.281758.0146367h-.548878v1.674689h-1.822276v-6.99515h2.371154c1.85033 0 3.20301.8306359 3.20301 2.6809659 0 1.0440886-.481793 1.7405543-1.233146 2.1296481z"/><path d="m282.747378 82.3972562h4.864282v1.5941868h-3.042006v1.6612719h2.721217v1.5954065h-2.721217v2.1430651h-1.822276z"/><path d="m298.843298 85.8944653c0-1.1794786-.776968-2.0101146-1.903998-2.0101146-1.123372 0-1.901559.830636-1.901559 2.0101146 0 1.205093.778187 2.0088949 1.901559 2.0088949 1.12703 0 1.903998-.8038019 1.903998-2.0088949m-5.668084 0c0-2.1442848 1.71494-3.6189381 3.764086-3.6189381 2.051585 0 3.766525 1.4746533 3.766525 3.6189381 0 2.1162311-1.71494 3.6177184-3.766525 3.6177184-2.049146 0-3.764086-1.5014873-3.764086-3.6177184"/><path d="m308.882283 86.1754911c.951389 0 1.380734-.3085917 1.380734-1.0977568 0-.7916046-.429345-1.1123935-1.380734-1.1123935h-.509847v2.2101503zm3.349378 3.2164273h-2.050366l-.977003-1.6893257c-.093919.0146367-.189058.0146367-.281758.0146367h-.550098v1.674689h-1.822276v-6.99515h2.372374c1.849111 0 3.201791.8306359 3.201791 2.6809659 0 1.0440886-.480574 1.7405543-1.231927 2.1296481z"/><path d="m325.300943 85.8944653c0-2.0771997 1.473434-3.6189381 3.631136-3.6189381 1.392931 0 2.357737.5500981 2.988337 1.5283214l-1.447819.9648062c-.307372-.49643-.750134-.8843041-1.540518-.8843041-1.098977 0-1.768609.844053-1.768609 2.0101146 0 1.1514249.669632 2.0088949 1.80886 2.0088949.872106 0 1.407568-.4147081 1.689325-.9904206l1.473434.844053c-.523264 1.0587254-1.622241 1.7551911-3.149342 1.7551911-2.278455 0-3.684804-1.5673527-3.684804-3.6177184"/><path d="m337.873429 82.3972562h1.822277v3.2554587h2.585827v-3.2554587h1.822276v6.9939303h-1.822276v-2.1174508h-2.585827v2.1174508h-1.822277z"/><path d="m350.123175 82.3972562h4.971618v1.5673527h-3.149342v1.5136846h2.626078v1.4880703h-2.626078v.85747h3.283513v1.5673527h-5.105789z"/><path d="m361.073299 82.3030931h.13295l3.538436 3.7518887 3.470131-3.7518887h.13539v7.0890692h-1.756411v-2.1320876c0-.5744927.095139-1.3660973.095139-1.3660973s-.443981.6842684-.912358 1.1928957l-.99164 1.0855595h-.13295l-1.018475-1.0855595c-.483013-.5086273-.89894-1.1928957-.89894-1.1928957s.093919.7916046.093919 1.3660973v2.1320876h-1.755191z"/><path d="m374.409458 89.3911865h1.822276v-6.9939303h-1.822276z"/><path d="m382.102903 85.8944653c0-2.0771997 1.473433-3.6189381 3.632355-3.6189381 1.392931 0 2.357738.5500981 2.987118 1.5283214l-1.447819.9648062c-.308592-.49643-.750134-.8843041-1.539299-.8843041-1.100196 0-1.771048.844053-1.771048 2.0101146 0 1.1514249.670852 2.0088949 1.810079 2.0088949.870887 0 1.406349-.4147081 1.689326-.9904206l1.473434.844053c-.522045 1.0587254-1.622241 1.7551911-3.149343 1.7551911-2.278455 0-3.684803-1.5673527-3.684803-3.6177184"/><path d="m398.051113 87.5953784-.295175-.6952459c-.307371-.7245195-.522044-1.4746533-.522044-1.4746533s-.187838.7501338-.509847 1.4746533l-.307372.6952459zm-.85747-5.2789902h.147587l3.29571 7.0756521h-1.889361l-.241507-.5622954h-2.585827l-.240287.5622954h-1.769827z"/><path d="m406.160486 82.3972562h1.822276v5.4119409h3.082257v1.5819894h-4.904533z"/><path d="m416.292293 87.890797 1.420985-.8318557c.293955.509847.737937.9123578 1.460017.9123578.49643 0 .85747-.1878383.85747-.509847 0-.3342059-.254924-.4817932-.951389-.7635508l-.293955-.1195335c-1.152645-.469596-1.929613-1.0331111-1.929613-2.2784552 0-1.2197297.936753-2.0247513 2.290653-2.0247513 1.005057 0 1.701523.2963943 2.278455 1.2075324l-1.380734.7891652c-.240287-.3878741-.495211-.4952103-.842834-.4952103-.362259 0-.603766.1878384-.603766.4952103 0 .3768965.308592.509847.7233.6842683l.295175.1207533c1.285595.5220443 2.224787 1.0453084 2.224787 2.3723743 0 1.2990122-.99286 2.062563-2.639496 2.062563-1.420985 0-2.452876-.6818289-2.909055-1.6210208"/></g><path d="m34.7027745 49.1929197 9.5931743-7.8599383 8.7783949 10.104241c2.6529121-3.7762832 4.0836551-8.7759554 4.0836551-14.5952859 0-12.9620679-8.5747-22.8626141-21.2306157-22.8626141-12.6571354 0-21.2306156 9.9005462-21.2306156 22.8626141 0 12.9620678 8.5734802 22.862614 21.2306156 22.862614 2.5516746 0 4.8996544-.3061521 7.0414998-1.019694zm37.0492905 23.6786133-9.4919367 7.8587186-10.3067162-11.8399165c-4.7984168 2.2455225-10.2091379 3.5725884-16.026029 3.5725884-20.0047873 0-35.92713915-15.105133-35.92713915-35.620987 0-20.5146343 15.92235185-35.62220677 35.92713915-35.62220677 20.0035676 0 35.9271392 15.10757247 35.9271392 35.62220677 0 9.9005462-3.6738259 18.5764838-9.7980889 24.9044416z" fill="#939597"/><path d="m74.577447 48.1828615v-35.8368791h15.4247021v35.6100094c0 7.2586116 3.1761763 10.8860878 10.0920439 10.8860878 6.919527 0 10.094483-3.515261 10.094483-10.8860878v-35.6100094h15.422263v35.8368791c0 15.9894371-10.659218 24.3823973-25.402091 24.3823973-15.1966132 0-25.631401-8.3929602-25.631401-24.3823973" fill="#939597"/><path d="m129.331602 71.5441011h15.424703v-59.1983627h-15.424703z" fill="#939597"/><path d="m148.81898 11.5516944h1.134349l29.940706 31.753224 29.373531-31.753224h1.133129v59.9936264h-14.857528v-18.0324843c0-4.8776992.794044-11.5679167.794044-11.5679167s-3.740911 5.7839583-7.709911 10.0932635l-8.392961 9.1870043h-1.134348l-8.61983-9.1870043c-4.082436-4.3093052-7.598917-10.0932635-7.598917-10.0932635s.794044 6.6902175.794044 11.5679167v18.0324843h-14.856308z" fill="#939597"/><path d="m303.433994 53.6889655c0-.1012376.024395-.1951568.030494-.2951746-1.969864.284197-5.747367.6257213-10.429909.0853811.056107.2488248.08904.5049681.08904.7708692 0 .6037662-.164663 1.1636221-.430565 1.6612719 3.222526.3842148 6.762182.4354435 10.538465-.0817219 0 0-4.82891 7.76236-15.963822 9.2833629.619622.7757481 1.005057 1.746653 1.005057 2.8175757 0 .8733265-.259803 1.6820073-.685488 2.3735941 8.553964-1.0514071 16.029688-5.4521919 20.837863-12.1192346-.150027.013417-.296395.04513-.450081.04513-2.506544 0-4.541054-2.03085-4.541054-4.5410538" fill="#020202"/><path d="m307.97456 31.4884207c-.465936 0-.905039-.09026-1.327066-.2207711 1.351461 3.9799782 2.61876 10.6336038-.04269 18.115426.434224-.1390492.887963-.2341881 1.369756-.2341881 1.751532 0 3.25302 1.0013981 4.011691 2.4516567 1.334385-3.4615929 2.0772-7.2866654 2.0772-11.3959348 0-4.0604803-.724519-7.8367635-2.02963-11.2568857-.740376 1.4990478-2.272357 2.540697-4.059261 2.540697" fill="#020202"/><path d="m269.679316 34.6544732c-.842833.7172011-1.905218 1.6771284-2.998096 2.7968403.815999.2573629 1.480752.8452727 1.830815 1.6149221.609864-.6281608 1.439281-1.4368416 2.446777-2.2930919 0 0-.324448 3.92631.018296 7.013446 0 0-1.264859-1.12825-2.439459-2.30163-.332986.7757481-.987981 1.3721959-1.793003 1.6454154 1.070923 1.0928778 2.107693 2.0271908 2.93467 2.7309748.31713-1.322187 1.496608-2.3065089 2.913934-2.3065089.282978 0 .554977.0524484.81478.1256322-.143928-1.7344557-.256144-4.2702738-.037812-6.8365851-.248825.0670851-.507408.1146545-.776968.1146545-1.417326 0-2.596804-.9843218-2.913934-2.3040694" fill="#020202"/><path d="m287.253426 15.4127488c11.14467 1.5149043 15.978459 9.2845827 15.978459 9.2845827-3.755548-.5135062-7.274468-.4671565-10.482357-.0890403.300053.5318022.485452 1.1392276.485452 1.7930027 0 .2146725-.026834.4208068-.060986.6245017 4.606919-.5159457 8.324655-.18052 10.278662.1012375-.002439-.0609865-.018296-.1183137-.018296-.1793002 0-2.5077644 2.03451-4.5398341 4.539834-4.5398341.204915 0 .400072.0353722.598888.0609865-4.798417-6.7524238-12.338786-11.1971189-20.979352-12.2509654.422027.690367.67939 1.4929492.67939 2.360177 0 1.0794608-.391533 2.0552446-1.019694 2.8346519" fill="#020202"/><path d="m262.736248 26.3760455c2.461415-3.8372697 7.467186-9.4065556 16.360235-10.8787694 0 0-5.214344 6.4706662-7.254952 15.5625316.241506-.0622062.489111-.1061165.751353-.1061165 1.436842 0 2.634617 1.0135954 2.927352 2.3638362 3.690902-2.4126254 7.418396-3.9824175 10.927558-4.9764973-.352502-.5647348-.563515-1.2258283-.563515-1.9393702 0-.1475873.025614-.2854168.042691-.4256857-7.187868 2.044267-11.614267 5.2521562-11.614267 5.2521562 1.707622-7.2781273 5.286309-12.4851535 7.095168-14.7684876-1.320967-.7928243-2.216249-2.2260067-2.216249-3.8823997 0-.8794251.262242-1.6954243.697686-2.3906703-9.182126 1.0453084-17.237221 5.943743-22.080768 13.3877536.232969-.0365919.467157-.0707444.712322-.0707444 1.917416 0 3.549414 1.1928957 4.215386 2.8724635" fill="#020202"/><path d="m258.52074 47.8606089c1.120932 0 2.134527.4220265 2.924912 1.0940976 1.379515-2.6882843 2.727316-4.6605873 3.553073-5.7693216-.826977-.2244303-1.506366-.7879454-1.884482-1.5368595-1.949129 2.6407149-3.418903 5.3594925-3.418903 5.3594925-1.867406-7.5281719 0-13.49387 0-13.49387 1.191676 2.2052713 2.540697 4.1543994 3.448176 5.3826673.393973-.7367168 1.078241-1.2880346 1.906438-1.4978281-.824538-1.1001963-2.21137-3.118849-3.627477-5.8888552-.789165.6610935-1.793002 1.0745819-2.901737 1.0745819-1.696644 0-3.15544-.9379722-3.936067-2.3138273-1.018475 3.0639611-1.58321 6.3901641-1.58321 9.9334789 0 3.5481938.564735 6.8853744 1.588089 9.960313.781846-1.3685368 2.239423-2.3040695 3.931188-2.3040695" fill="#020202"/><path d="m281.397869 64.0542287c-1.811298-2.2894327-5.381447-7.4903602-7.08541-14.7550705 0 0 4.46909 3.2383824 11.716724 5.28021-.010978-.108556-.032933-.2158922-.032933-.329327 0-.7513536.232969-1.4478192.630601-2.0210922-3.561611-.9916403-7.353751-2.5711903-11.106859-5.0252865-.296395 1.3453619-1.492949 2.3540784-2.927352 2.3540784-.262242 0-.509847-.0426905-.752573-.1061165 2.039388 9.0943049 7.256172 15.5661908 7.256172 15.5661908-8.911345-1.475873-13.919555-7.0646746-16.376091-10.9019443-.67573 1.656393-2.297971 2.824894-4.19953 2.824894-.243945 0-.478134-.0341524-.711102-.071964 4.844767 7.4757235 12.902301 12.4144092 22.088086 13.4670359-.441542-.6989051-.706224-1.5197832-.706224-2.405307 0-1.651514.890403-3.0810373 2.206491-3.8763011" fill="#020202"/><path d="m288.27312 12.577853c0 2.5102038-2.03207 4.5410538-4.541054 4.5410538-2.505325 0-4.539834-2.03085-4.539834-4.5410538 0-2.5065446 2.034509-4.53983408 4.539834-4.53983408 2.508984 0 4.541054 2.03328948 4.541054 4.53983408" fill="#e01e24"/><path d="m288.27312 67.9301639c0 2.5077643-2.03207 4.5410538-4.541054 4.5410538-2.505325 0-4.539834-2.0332895-4.539834-4.5410538 0-2.5089841 2.034509-4.5410538 4.539834-4.5410538 2.508984 0 4.541054 2.0320697 4.541054 4.5410538" fill="#e01e24"/><path d="m268.783668 40.3016999c0 1.6563929-1.344142 3.0005351-3.001755 3.0005351-1.657612 0-3.001754-1.3441422-3.001754-3.0005351 0-1.6576127 1.344142-3.0029746 3.001754-3.0029746 1.657613 0 3.001755 1.3453619 3.001755 3.0029746" fill="#e01e24"/><path d="m275.5922 33.9576416c0 1.656393-1.344142 3.0005351-2.999316 3.0005351-1.657612 0-3.004194-1.3441421-3.004194-3.0005351 0-1.6576127 1.346582-3.0041943 3.004194-3.0041943 1.655174 0 2.999316 1.3465816 2.999316 3.0041943" fill="#e01e24"/><path d="m293.235346 26.40105c0 2.0320697-1.646635 3.6787049-3.676265 3.6787049-2.03207 0-3.675046-1.6466352-3.675046-3.6787049 0-2.0296303 1.642976-3.6762654 3.675046-3.6762654 2.02963 0 3.676265 1.6466351 3.676265 3.6762654" fill="#e01e24"/><path d="m293.123375 54.2499192c0 1.967424-1.596626 3.5640503-3.56405 3.5640503-1.969864 0-3.56405-1.5966263-3.56405-3.5640503 0-1.9698635 1.594186-3.5640503 3.56405-3.5640503 1.967424 0 3.56405 1.5941868 3.56405 3.5640503" fill="#e01e24"/><path d="m312.517566 53.6889655c0 2.5102038-2.034509 4.5410538-4.543494 4.5410538-2.505324 0-4.539834-2.03085-4.539834-4.5410538 0-2.5077643 2.03451-4.5398341 4.539834-4.5398341 2.508985 0 4.543494 2.0320698 4.543494 4.5398341" fill="#e01e24"/><path d="m312.517566 26.9477329c0 2.5102037-2.034509 4.5410537-4.543494 4.5410537-2.505324 0-4.539834-2.03085-4.539834-4.5410537 0-2.5077644 2.03451-4.5398341 4.539834-4.5398341 2.508985 0 4.543494 2.0320697 4.543494 4.5398341" fill="#e01e24"/><path d="m263.061428 28.04366c0 2.5102038-2.032069 4.5410538-4.541053 4.5410538-2.510204 0-4.539835-2.03085-4.539835-4.5410538 0-2.5077643 2.029631-4.5410538 4.539835-4.5410538 2.508984 0 4.541053 2.0332895 4.541053 4.5410538" fill="#e01e24"/><path d="m263.061428 52.4000771c0 2.5102038-2.032069 4.5410538-4.541053 4.5410538-2.510204 0-4.539835-2.03085-4.539835-4.5410538 0-2.5065446 2.029631-4.5398341 4.539835-4.5398341 2.508984 0 4.541053 2.0332895 4.541053 4.5398341" fill="#e01e24"/><path d="m275.5922 46.5587914c0 1.6551732-1.344142 2.9993154-2.999316 2.9993154-1.657612 0-3.004194-1.3441422-3.004194-2.9993154 0-1.6576127 1.346582-3.0041943 3.004194-3.0041943 1.655174 0 2.999316 1.3465816 2.999316 3.0041943" fill="#e01e24"/><path d="m231.833176 34.1190118 15.762567-20.7524816h13.04257l-20.410957 26.4230052 23.361483 31.7556635h-13.950048l-17.351876-23.5883533-6.578002 7.7099116v15.8784417h-11.567917v-58.1786687h11.567917v19.8462224c0 4.1958703-.67939 9.8663938-1.018474 12.8157003 1.697863-3.0627413 4.64839-8.5063951 7.142737-11.9094411" fill="#020202"/><path d="m333.796117 43.419451c-3.515261-3.4018262-7.258612-8.3917405-7.258612-8.3917405s.908699 6.2364781.908699 11.0007424v25.516746h-10.548223v-58.8592779h1.133129l29.486966 28.6917025c4.083655 3.9702202 7.258612 8.3929602 7.258612 8.3929602s-.67939-5.8973932-.67939-11.0019621v-25.4020914h10.547003v58.971493h-1.134348z" fill="#020202"/><path d="m367.136209 42.5118501c0-17.8043948 13.384095-30.0541405 30.28101-30.0541405 10.659219 0 17.123786 3.6299157 21.661181 8.3929603l-7.485482 7.7111313c-2.834652-3.2883913-7.146396-5.8961735-14.175699-5.8961735-11.342266 0-18.486223 8.7320451-18.486223 19.8462224s6.351132 20.1877468 19.620572 20.1877468c5.328999 0 9.52487-1.4746533 12.246087-3.1761762v-8.8466998h-13.835395v-9.4114345h24.382398v24.609267c-3.855566 2.9480867-11.793567 6.6914373-22.79309 6.6914373-18.939963 0-31.415359-12.7022654-31.415359-30.0541406" fill="#020202"/></g></svg>