<?xml version="1.0" standalone="no"?>
<!DOCTYPE svg PUBLIC "-//W3C//DTD SVG 20010904//EN"
 "http://www.w3.org/TR/2001/REC-SVG-20010904/DTD/svg10.dtd">
<svg version="1.0" xmlns="http://www.w3.org/2000/svg"
 width="1130.000000pt" height="1130.000000pt" viewBox="0 0 1130.000000 1130.000000"
 preserveAspectRatio="xMidYMid meet">
<metadata>
Created by potrace 1.11, written by Peter Selinger 2001-2013
</metadata>
<g transform="translate(0.000000,1130.000000) scale(0.100000,-0.100000)"
fill="#000000" stroke="none">
<path d="M5545 11285 c-203 -38 -381 -148 -497 -307 -24 -32 -49 -58 -58 -59
-8 0 -22 -2 -31 -4 -8 -1 -40 -6 -70 -9 -30 -4 -65 -8 -79 -11 -14 -2 -68 -11
-120 -20 -52 -9 -147 -27 -210 -41 -63 -14 -122 -26 -130 -27 -8 -2 -21 -6
-27 -10 -7 -5 -13 -6 -13 -3 0 3 -11 1 -25 -4 -14 -5 -36 -12 -48 -14 -43 -8
-143 -36 -202 -56 -33 -11 -60 -20 -60 -19 0 4 -147 -46 -295 -102 -998 -372
-1857 -1039 -2455 -1902 l-80 -116 -65 -16 c-307 -78 -536 -320 -594 -629 -14
-70 -14 -227 -1 -296 9 -50 55 -181 71 -205 20 -28 18 -48 -17 -155 -43 -134
-105 -387 -139 -564 -29 -152 -34 -180 -45 -271 -4 -27 -8 -61 -10 -75 -11
-79 -23 -201 -32 -345 -14 -210 -7 -775 11 -885 3 -14 7 -61 11 -105 4 -44 8
-82 10 -85 1 -3 5 -32 9 -65 3 -33 8 -70 10 -81 3 -12 7 -39 10 -60 4 -22 8
-46 11 -54 2 -8 6 -33 10 -55 16 -116 100 -456 152 -620 l29 -90 -32 -70 c-27
-61 -40 -101 -60 -190 -12 -49 -10 -219 2 -281 37 -196 136 -362 286 -482 94
-75 234 -140 338 -157 19 -3 38 -12 42 -19 16 -29 185 -266 232 -326 270 -343
579 -654 906 -911 485 -382 1054 -683 1660 -878 176 -56 377 -110 523 -140 81
-17 202 -40 235 -46 17 -3 47 -8 65 -11 17 -3 77 -11 131 -18 96 -12 101 -14
125 -47 51 -69 178 -187 246 -227 71 -42 177 -85 244 -99 47 -9 275 -10 323
-1 189 38 386 166 490 319 20 29 41 49 53 50 11 0 29 2 40 4 11 2 43 7 70 11
60 8 80 11 120 19 17 3 68 12 114 21 104 19 304 65 431 99 159 43 514 164 615
210 17 8 59 26 95 41 103 42 356 167 476 234 439 248 801 524 1144 870 204
205 290 304 449 513 51 67 80 97 95 98 12 0 28 2 36 4 8 2 30 6 48 9 161 30
358 164 465 316 50 70 110 195 106 220 0 3 5 19 11 35 17 44 21 78 25 190 3
116 -12 205 -56 313 l-29 74 49 141 c117 332 208 699 246 987 3 25 8 56 10 70
5 31 12 86 21 165 3 33 8 74 10 90 25 203 25 938 0 1071 -2 10 -7 51 -10 89
-4 39 -8 81 -10 95 -3 14 -7 48 -11 75 -3 28 -8 57 -10 65 -2 8 -6 38 -10 65
-25 207 -127 610 -231 913 l-46 133 20 47 c43 99 60 193 57 313 -3 130 -8 160
-37 244 -91 263 -296 453 -562 520 l-91 23 -79 103 c-162 213 -345 420 -531
599 -130 125 -145 138 -257 231 -62 52 -115 96 -118 99 -3 3 -21 17 -40 30
-19 13 -37 27 -40 30 -8 10 -103 79 -211 152 -484 333 -1043 588 -1629 745
-52 14 -102 26 -110 28 -8 2 -53 12 -100 23 -87 21 -273 57 -345 68 -22 3 -51
7 -65 10 -14 2 -51 7 -82 10 -57 7 -58 7 -107 73 -118 159 -301 272 -495 307
-66 12 -214 11 -281 -1z m890 -1301 c27 -6 73 -14 110 -20 17 -3 46 -9 65 -14
19 -5 51 -12 70 -15 123 -20 409 -108 630 -192 691 -264 1344 -752 1749 -1306
l43 -58 -39 5 c-21 3 -60 8 -88 11 -27 3 -61 7 -75 10 -14 2 -63 7 -110 10
-47 4 -101 8 -120 10 -252 27 -1039 21 -1220 -10 -14 -3 -61 -7 -105 -10 l-80
-6 -25 41 c-14 23 -50 66 -80 96 -265 261 -683 249 -933 -26 -68 -75 -120
-172 -143 -265 -9 -38 -18 -75 -19 -81 -2 -6 -38 -21 -82 -34 -232 -69 -503
-164 -728 -255 -127 -52 -156 -64 -315 -136 -113 -50 -442 -219 -550 -281
-165 -96 -175 -102 -178 -110 -2 -4 -8 -8 -13 -8 -5 0 -41 -21 -79 -47 -39
-25 -72 -44 -75 -41 -2 2 14 71 36 154 22 82 41 156 44 164 27 101 126 391
188 550 135 348 315 712 515 1045 139 230 428 645 450 645 4 0 35 -13 68 -30
200 -97 448 -99 669 -5 71 31 174 104 233 165 l57 60 55 -6 c30 -4 64 -8 75
-10z m-1648 -106 c-289 -403 -579 -915 -772 -1363 -26 -60 -53 -123 -60 -140
-100 -224 -258 -709 -331 -1015 -10 -41 -23 -80 -28 -86 -6 -6 -36 -21 -66
-34 -161 -67 -288 -222 -315 -385 -8 -49 -8 -186 0 -207 4 -9 -14 -32 -52 -64
-132 -113 -180 -159 -340 -316 l-122 -120 -52 12 c-33 8 -86 11 -145 7 l-94
-5 -28 36 c-99 125 -374 560 -484 762 -19 36 -53 99 -76 140 l-41 76 67 71
c190 201 261 488 188 760 -7 28 -17 56 -21 63 -14 22 198 318 376 525 196 227
460 473 683 637 45 33 88 65 96 71 30 24 208 136 300 189 303 174 659 320 995
408 128 33 388 89 393 85 2 -2 -30 -50 -71 -107z m3783 -1872 c135 -8 239 -16
285 -21 122 -14 232 -27 250 -30 11 -2 23 -4 26 -4 3 -1 6 -7 6 -13 3 -168 94
-377 219 -503 82 -83 125 -113 224 -161 52 -26 102 -50 109 -53 8 -4 18 -18
22 -32 4 -13 24 -78 44 -144 20 -66 38 -127 40 -135 24 -97 48 -200 52 -220 2
-14 10 -53 18 -87 19 -81 62 -358 70 -448 3 -38 8 -81 10 -95 21 -140 21 -713
0 -850 -2 -14 -7 -54 -10 -90 -4 -36 -9 -78 -10 -95 -2 -16 -7 -48 -10 -70
-51 -317 -88 -474 -203 -843 -13 -42 -22 -54 -42 -59 -82 -19 -213 -105 -306
-198 -115 -115 -190 -263 -217 -423 -15 -86 -10 -83 -142 -97 -33 -4 -71 -8
-85 -10 -14 -2 -61 -6 -105 -10 -44 -3 -109 -8 -145 -11 -145 -13 -684 -19
-835 -9 -191 11 -264 16 -295 20 -19 3 -66 7 -105 10 -110 9 -125 14 -125 43
0 9 -20 57 -44 107 -111 226 -333 359 -585 349 -187 -7 -355 -93 -468 -237
l-22 -28 -111 31 c-177 50 -506 165 -655 229 -11 5 -76 33 -145 62 -265 112
-632 305 -906 476 l-121 76 4 86 c4 61 0 105 -12 151 -17 67 -65 172 -90 196
-7 8 -22 24 -32 37 -44 55 -187 147 -228 147 -8 0 -16 3 -16 8 -2 9 -5 52 -15
187 -9 126 -11 763 -2 875 3 41 6 87 7 103 1 16 7 27 15 27 36 0 164 77 220
134 110 110 157 233 153 394 l-3 93 151 93 c82 52 173 106 200 121 28 16 82
46 120 68 71 39 405 204 505 249 200 90 544 219 760 284 80 25 150 46 156 48
6 2 28 -19 49 -47 52 -72 132 -138 218 -181 363 -182 784 -3 911 387 9 26 16
54 16 62 0 9 10 16 23 16 12 1 27 2 32 3 6 1 51 5 100 10 50 4 106 9 125 11
19 2 103 6 185 10 83 4 151 8 152 9 5 4 530 -2 613 -8z m-7060 -1238 c0 -4 28
-54 61 -110 34 -57 69 -116 79 -133 53 -92 213 -336 322 -488 61 -86 98 -146
94 -156 -3 -9 -15 -43 -26 -76 -33 -91 -32 -236 3 -332 l25 -72 -49 -65 c-112
-148 -289 -422 -450 -699 -51 -86 -94 -156 -96 -154 -6 7 -32 133 -62 302 -28
152 -34 193 -46 303 -3 26 -8 61 -10 77 -26 200 -27 857 0 994 2 12 7 50 10
84 3 35 7 71 9 82 2 11 7 45 11 75 4 30 9 64 11 75 2 11 7 34 10 50 11 62 44
218 55 258 l11 41 19 -24 c10 -14 19 -28 19 -32z m1936 -534 c-26 -68 -27
-953 -1 -1157 2 -15 -1 -27 -6 -25 -13 5 -147 127 -286 263 l-124 120 20 75
c24 94 22 210 -7 294 l-20 59 97 95 c82 81 138 133 291 270 29 26 45 29 36 6z
m-624 -1199 c114 -111 265 -249 345 -316 43 -36 51 -48 47 -68 -10 -46 -4
-186 9 -236 40 -145 146 -275 277 -337 41 -20 83 -38 93 -42 9 -3 17 -13 18
-23 2 -37 11 -75 60 -249 27 -99 51 -186 54 -196 20 -88 175 -509 258 -703 84
-198 278 -602 307 -640 4 -5 27 -46 50 -90 130 -241 476 -775 524 -807 15 -10
1 -10 -65 2 -30 5 -68 12 -85 15 -46 7 -312 74 -364 91 -522 169 -832 321
-1215 593 -204 145 -315 240 -535 461 -211 210 -367 399 -529 638 -59 88 -62
94 -51 126 71 215 55 452 -43 636 -37 70 -133 197 -164 217 -13 8 -23 20 -23
27 0 22 191 363 314 561 31 50 207 314 261 393 l30 42 55 -6 c72 -8 156 -6
200 5 19 5 43 9 52 8 9 -1 63 -47 120 -102z m1478 -1137 c197 -118 602 -322
835 -420 287 -121 654 -252 899 -321 43 -12 50 -17 53 -43 11 -96 67 -225 134
-307 162 -198 442 -281 679 -201 137 47 256 138 330 255 29 44 35 48 63 44 60
-8 122 -14 197 -20 41 -3 93 -8 115 -10 200 -22 859 -21 1035 0 19 2 69 7 110
10 101 8 157 13 205 20 99 13 135 15 135 9 0 -7 -99 -145 -111 -154 -3 -3 -28
-32 -55 -65 -240 -296 -647 -635 -1032 -857 -98 -56 -373 -198 -385 -198 -3 0
-34 -13 -69 -29 -163 -75 -455 -171 -688 -227 -128 -31 -104 -26 -284 -59
l-149 -27 -66 64 c-169 165 -317 228 -546 233 -121 3 -210 -9 -293 -40 -7 -2
-14 -5 -17 -5 -3 0 -30 -13 -61 -30 -31 -16 -58 -30 -59 -30 -4 0 -108 139
-176 235 -296 415 -553 883 -745 1360 -36 88 -69 169 -74 180 -16 34 -119 345
-150 450 -32 111 -90 330 -90 339 0 4 24 -9 53 -28 28 -19 122 -77 207 -128z"/>
</g>
</svg>
